<svg aria-hidden="true" style="position: absolute; width: 0; height: 0; overflow: hidden;" version="1.1" xmlns="http://www.w3.org/2000/svg" xmlns:xlink="http://www.w3.org/1999/xlink">
<defs>
<symbol id="icon-eye" viewBox="0 0 32 32">
<path d="M15.040 3.765l-0.701 0.078c-5.093 0.549-10.269 4.434-13.843 10.389l-0.496 0.827v1.88l0.458 0.765c2.381 3.986 5.614 7.192 8.971 8.899 1.978 1.005 3.661 1.477 5.731 1.608 3.747 0.237 7.298-1.019 10.707-3.789 0.778-0.632 2.317-2.17 3.037-3.032 1.035-1.245 2.166-2.853 2.797-3.976l0.299-0.534v-1.76l-0.301-0.534c-0.651-1.158-1.754-2.728-2.786-3.973-0.709-0.853-2.414-2.544-3.181-3.154-2.629-2.091-5.202-3.253-8.026-3.621-0.469-0.061-2.338-0.112-2.667-0.074zM17.68 7.059c2.272 0.429 4.272 1.406 6.213 3.034 0.988 0.867 1.886 1.776 2.714 2.746l0.030 0.037c0.8 0.976 2.163 2.946 2.163 3.125 0 0.074-0.461 0.803-0.941 1.493-1.95 2.798-4.285 4.982-6.642 6.211-3.368 1.757-6.811 1.8-10.184 0.128-2.776-1.376-5.506-4.027-7.613-7.392l-0.275-0.44 0.275-0.44c1.408-2.251 3.261-4.37 5.086-5.81 1.915-1.51 4.158-2.496 6.298-2.763 0.547-0.069 2.374-0.024 2.875 0.072zM15.413 10.437c-0.526 0.064-1.003 0.183-1.456 0.353l0.043-0.014c-3.381 1.299-4.634 5.325-2.613 8.397 0.27 0.411 1.029 1.17 1.44 1.44 1.384 0.91 2.992 1.192 4.546 0.798 2.438-0.636 4.209-2.818 4.209-5.415 0-0.589-0.091-1.156-0.26-1.689l0.011 0.040c-0.269-0.906-0.748-1.68-1.383-2.295l-0.001-0.001c-0.616-0.636-1.39-1.115-2.259-1.374l-0.037-0.009c-0.506-0.163-1.088-0.257-1.692-0.257-0.193 0-0.384 0.010-0.572 0.028l0.024-0.002zM16.867 13.758c0.582 0.221 1.155 0.794 1.374 1.374 0.618 1.638-0.666 3.374-2.402 3.253-0.72-0.041-1.348-0.401-1.751-0.939l-0.004-0.006c-0.728-0.922-0.616-2.331 0.251-3.158 0.53-0.506 1.035-0.694 1.771-0.661 0.293 0.013 0.562 0.062 0.76 0.138z"></path>
</symbol>
<symbol id="icon-heart-active" viewBox="0 0 32 32">
<path d="M8.17 2.857c-1.87 0.281-3.503 1.134-4.755 2.371l0.001-0.001c-1.678 1.647-2.562 3.748-2.562 6.079 0 1.893 0.528 3.51 1.67 5.121 0.242 0.342 1.803 1.937 6.406 6.55 3.346 3.353 6.203 6.185 6.348 6.293 0.236 0.175 0.306 0.198 0.645 0.215 0.311 0.015 0.423-0.002 0.615-0.098 0.167-0.084 1.884-1.764 5.908-5.778 3.119-3.114 5.943-5.954 6.274-6.313 1.682-1.813 2.505-3.951 2.412-6.272-0.087-2.197-0.943-4.182-2.457-5.701-1.551-1.572-3.705-2.545-6.086-2.545-1.955 0-3.757 0.656-5.197 1.76l0.020-0.015c-0.176 0.134-0.574 0.478-0.884 0.763l-0.565 0.521-0.422-0.428c-1.952-1.98-4.682-2.913-7.372-2.522z"></path>
</symbol>
<symbol id="icon-heart" viewBox="0 0 32 32">
<path d="M8.183 2.855c-1.876 0.276-3.516 1.13-4.771 2.372l0.001-0.001c-1.18 1.148-2.029 2.632-2.391 4.297l-0.010 0.056c-0.145 0.672-0.202 2.176-0.107 2.844 0.237 1.59 0.852 3.004 1.752 4.191l-0.017-0.023c0.314 0.415 12.33 12.466 12.667 12.704 0.224 0.158 0.27 0.17 0.693 0.17s0.469-0.012 0.693-0.17c0.399-0.281 12.318-12.257 12.676-12.737 0.77-1.013 1.337-2.224 1.615-3.541l0.010-0.059c0.103-0.476 0.121-0.72 0.121-1.627s-0.017-1.15-0.119-1.62c-0.395-1.818-1.127-3.2-2.335-4.407-1.236-1.236-2.644-1.988-4.459-2.383-0.465-0.101-0.711-0.118-1.615-0.118-0.907 0-1.151 0.017-1.627 0.121-1.712 0.368-3.079 1.097-4.453 2.374l-0.544 0.506-0.421-0.427c-1.68-1.703-3.862-2.619-6.196-2.599-0.374 0.004-0.897 0.037-1.163 0.076zM10.404 5.311c0.917 0.166 1.733 0.507 2.446 0.988l-0.023-0.014c0.215 0.143 0.822 0.686 1.44 1.292 1.134 1.113 1.246 1.189 1.733 1.189 0.485 0 0.596-0.076 1.732-1.189 1.076-1.055 1.47-1.365 2.188-1.724 1.088-0.543 2.482-0.752 3.653-0.545 2.61 0.458 4.583 2.427 5.039 5.028 0.255 1.46-0.098 3.086-0.964 4.425-0.128 0.199-2.212 2.324-5.909 6.027-3.141 3.146-5.726 5.721-5.743 5.721-0.016 0-2.564-2.527-5.662-5.614-3.732-3.721-5.713-5.734-5.877-5.97-0.794-1.152-1.151-2.277-1.151-3.628 0-2.954 2.118-5.451 5.079-5.988 0.542-0.098 1.488-0.097 2.017 0.004z"></path>
</symbol>
<symbol id="icon-mapPin" viewBox="0 0 32 32">
<path d="M13.212 0.108c-3.626 0.782-6.814 3.026-8.708 6.132-0.478 0.782-1.004 1.92-1.296 2.8-1.846 5.564 0 11.342 5.518 17.28 1.736 1.868 4.356 4.154 6.224 5.432l0.364 0.248h1.372l0.364-0.248c1.6-1.094 3.59-2.784 5.354-4.548 2.492-2.494 4.272-4.902 5.48-7.418 0.892-1.854 1.34-3.37 1.53-5.16 0.476-4.486-1.42-8.976-5.006-11.852-1.554-1.229-3.415-2.145-5.445-2.619l-0.095-0.019c-0.618-0.134-0.658-0.136-2.908-0.132-2.024 0.004-2.332 0.016-2.748 0.104zM17.724 2.958c3.482 0.642 6.24 2.732 7.75 5.868 1.984 4.122 1.094 8.58-2.684 13.45-1.558 2.008-4.204 4.592-6.39 6.236l-0.4 0.3-0.4-0.3c-2.318-1.746-5.036-4.428-6.65-6.566-2.554-3.38-3.704-6.638-3.4-9.634 0.328-3.271 2.108-6.068 4.677-7.77l0.039-0.024c1.246-0.822 2.862-1.41 4.486-1.634 0.548-0.076 2.412-0.030 2.972 0.074zM14.978 7.92c-2.45 0.486-4.297 2.545-4.453 5.062l-0.001 0.016c-0.006 0.099-0.010 0.215-0.010 0.332 0 2.202 1.297 4.1 3.168 4.974l0.034 0.014c0.673 0.306 1.459 0.485 2.287 0.485 0.725 0 1.417-0.137 2.054-0.386l-0.038 0.013c2.050-0.834 3.469-2.811 3.469-5.119 0-0.32-0.027-0.634-0.080-0.939l0.005 0.033c-0.391-2.152-1.976-3.851-4.031-4.403l-0.039-0.009c-0.544-0.144-1.782-0.182-2.364-0.072zM17.038 11.058c1.104 0.524 1.666 1.676 1.388 2.85-0.14 0.596-0.434 1.028-0.98 1.438-1.046 0.788-2.632 0.556-3.426-0.502-0.216-0.258-0.373-0.574-0.444-0.92l-0.002-0.014c-0.047-0.18-0.074-0.386-0.074-0.599 0-0.657 0.258-1.253 0.679-1.692l-0.001 0.001c0.53-0.576 1.1-0.804 1.936-0.774 0.462 0.016 0.558 0.038 0.924 0.212z"></path>
</symbol>
<symbol id="icon-star" viewBox="0 0 34 32">
<path d="M14.971-0.389l-4.32 8.183c-0.16 0.32-0.457 0.549-0.8 0.594l-9.12 1.577c-0.914 0.16-1.257 1.257-0.617 1.92l6.446 6.629c0.251 0.274 0.366 0.617 0.297 0.96l-1.303 9.166c-0.137 0.914 0.8 1.6 1.623 1.189l8.297-4.091c0.32-0.137 0.709-0.137 1.029 0l8.297 4.091c0.823 0.411 1.76-0.274 1.623-1.189l-1.303-9.166c-0.069-0.343 0.046-0.686 0.297-0.96l6.446-6.629c0.64-0.663 0.297-1.76-0.617-1.92l-9.12-1.577c-0.343-0.046-0.64-0.274-0.8-0.594l-4.32-8.183c-0.434-0.8-1.6-0.8-2.034 0z"></path>
<path d="M10.651 7.794l4.32-8.183c0.434-0.8 1.6-0.8 2.034 0l4.32 8.183c0.16 0.32 0.457 0.549 0.8 0.594l9.12 1.577c0.914 0.16 1.257 1.257 0.617 1.92l-6.446 6.629c-0.251 0.274-0.366 0.617-0.297 0.96l1.303 9.166c0.137 0.914-0.8 1.6-1.623 1.189l-8.297-4.091c-0.32-0.137-0.709-0.137-1.029 0l-8.297 4.091c-0.823 0.411-1.76-0.274-1.623-1.189l1.303-9.166c0.069-0.343-0.046-0.686-0.297-0.96l-6.446-6.629c-0.64-0.663-0.297-1.76 0.617-1.92l9.12-1.577c0.343-0.046 0.64-0.274 0.8-0.594zM13.097 9.074c-0.571 1.074-1.6 1.806-2.789 2.011l-6.126 1.074 4.343 4.457c0.823 0.869 1.234 2.057 1.051 3.246l-0.891 6.171 5.6-2.743c1.074-0.549 2.331-0.549 3.429 0l5.577 2.743-0.891-6.171c-0.183-1.189 0.229-2.377 1.051-3.246l4.343-4.457-6.126-1.074c-1.189-0.206-2.217-0.937-2.789-2.011l-2.88-5.486-2.903 5.486z"></path>
</symbol>
<symbol id="icon-fe_check" viewBox="0 0 32 32">
<path d="M8 13.333l-2.667 2.667 8 8 13.333-13.333-2.667-2.667-10.667 10.667-5.333-5.333z"></path>
</symbol>
<symbol id="icon-Arrow" viewBox="0 0 32 32">
<path d="M27.118 3.149c-0.145-1.029-1.096-1.747-2.126-1.602l-16.776 2.358c-1.029 0.145-1.747 1.097-1.602 2.126s1.097 1.747 2.126 1.602l14.912-2.096 2.096 14.912c0.145 1.029 1.097 1.747 2.126 1.602s1.747-1.096 1.602-2.126l-2.358-16.776zM6.367 31.604l20.391-27.060-3.007-2.266-20.391 27.060 3.007 2.266z"></path>
</symbol>
<symbol id="icon-mdi_user" viewBox="0 0 32 32">
<path d="M16 5.333c1.413 0 2.76 0.56 3.76 1.56s1.573 2.347 1.573 3.773c0 1.413-0.573 2.76-1.573 3.76s-2.347 1.573-3.76 1.573c-1.427 0-2.773-0.573-3.773-1.573s-1.56-2.347-1.56-3.76c0-1.427 0.56-2.773 1.56-3.773s2.347-1.56 3.773-1.56zM16 18.667c5.893 0 10.667 2.387 10.667 5.333v2.667h-21.333v-2.667c0-2.947 4.773-5.333 10.667-5.333z"></path>
</symbol>
<symbol id="close-icon" viewBox="0 0 32 32">
<path d="M7.493 6.928c-0.56 0.259-0.825 0.957-0.585 1.54 0.057 0.139 1.185 1.303 3.747 3.865l3.665 3.667-3.665 3.667c-2.561 2.563-3.689 3.727-3.747 3.865-0.052 0.134-0.083 0.29-0.083 0.452 0 0.32 0.118 0.613 0.312 0.837l-0.001-0.002c0.309 0.329 0.9 0.449 1.332 0.272 0.139-0.057 1.303-1.185 3.865-3.747l3.667-3.665 3.667 3.665c2.563 2.561 3.727 3.689 3.865 3.747 0.432 0.177 1.023 0.057 1.332-0.272 0.193-0.223 0.311-0.515 0.311-0.836 0-0.163-0.030-0.318-0.086-0.461l0.003 0.009c-0.057-0.139-1.185-1.303-3.747-3.865l-3.665-3.667 3.665-3.667c2.561-2.563 3.689-3.727 3.747-3.865 0.177-0.432 0.057-1.023-0.272-1.332-0.223-0.193-0.515-0.311-0.836-0.311-0.163 0-0.318 0.030-0.461 0.086l0.009-0.003c-0.139 0.057-1.303 1.185-3.865 3.747l-3.667 3.665-3.667-3.665c-2.563-2.561-3.727-3.689-3.865-3.747-0.137-0.049-0.295-0.077-0.46-0.077-0.185 0-0.362 0.036-0.524 0.101l0.009-0.003z"></path>
</symbol>
<symbol id="icon-chevron" viewBox="0 0 32 32">
<path d="M15.488 10.494c-0.183 0.071-0.342 0.16-0.485 0.268l0.005-0.004c-0.114 0.093-2.046 2.011-4.294 4.264-4.546 4.558-4.29 4.258-4.285 5.005-0.001 0.017-0.001 0.037-0.001 0.057 0 0.409 0.174 0.777 0.451 1.035l0.001 0.001c0.325 0.325 0.634 0.448 1.12 0.448 0.723 0 0.531 0.163 4.467-3.77l3.533-3.53 3.533 3.53c3.936 3.933 3.744 3.77 4.467 3.77 0.486 0 0.795-0.123 1.12-0.448s0.448-0.634 0.448-1.12c0-0.731 0.232-0.462-4.437-5.131-3.485-3.485-4.243-4.218-4.461-4.314-0.199-0.087-0.43-0.138-0.674-0.138-0.182 0-0.357 0.028-0.521 0.081l0.012-0.003z"></path>
</symbol>
<symbol id="icon-eye-off" viewBox="0 0 32 32">
<path fill="none" stroke="#11101C" style="stroke: var(--color2, #11101C)" stroke-linejoin="round" stroke-linecap="round" stroke-miterlimit="4" stroke-width="2.88" d="M23.92 23.92c-2.279 1.737-5.055 2.7-7.92 2.747-9.333 0-14.667-10.667-14.667-10.667 1.659-3.091 3.959-5.791 6.747-7.92M13.2 5.653c0.918-0.215 1.857-0.322 2.8-0.32 9.333 0 14.667 10.667 14.667 10.667-0.809 1.514-1.775 2.94-2.88 4.253M18.827 18.827c-0.366 0.393-0.808 0.708-1.299 0.927s-1.020 0.336-1.557 0.346c-0.537 0.009-1.071-0.089-1.569-0.291s-0.95-0.501-1.33-0.88c-0.38-0.38-0.679-0.832-0.88-1.33s-0.3-1.032-0.29-1.569c0.009-0.537 0.127-1.067 0.346-1.558s0.534-0.932 0.927-1.298">
</path>
<path fill="none" stroke="#11101C" style="stroke: var(--color2, #11101C)" stroke-linejoin="round" stroke-linecap="round" stroke-miterlimit="4" stroke-width="2.88" d="M1.333 1.333l29.333 29.333">
</path>
</symbol>
<symbol id="icon-eye" viewBox="0 0 32 32">
<path fill="none" stroke="#efede8" style="stroke: var(--color2, #efede8)" stroke-linejoin="round" stroke-linecap="round" stroke-miterlimit="4" stroke-width="2.88" d="M1.333 16c0 0 5.333-10.667 14.667-10.667s14.667 10.667 14.667 10.667-5.333 10.667-14.667 10.667c-9.333 0-14.667-10.667-14.667-10.667z">
</path>
<path fill="none" stroke="#efede8" style="stroke: var(--color2, #efede8)" stroke-linejoin="round" stroke-linecap="round" stroke-miterlimit="4" stroke-width="2.88" d="M16 20c2.209 0 4-1.791 4-4s-1.791-4-4-4c-2.209 0-4 1.791-4 4s1.791 4 4 4z">
</path>
</symbol>
</defs>
</svg>
