<svg aria-hidden="true" style="position: absolute; width: 0; height: 0; overflow: hidden;" version="1.1" xmlns="http://www.w3.org/2000/svg" xmlns:xlink="http://www.w3.org/1999/xlink">
<defs>
<symbol id="book-open" viewBox="0 0 24 24">
<path stroke-linejoin="round" stroke-linecap="round" stroke-miterlimit="4" stroke-width="2.25" d="M22 6.2c0-1.12 0-1.68-0.218-2.108-0.192-0.376-0.498-0.682-0.874-0.874-0.428-0.218-0.988-0.218-2.108-0.218h-0.4c-2.24 0-3.36 0-4.216 0.436-0.753 0.383-1.365 0.995-1.748 1.748-0.436 0.856-0.436 1.976-0.436 4.216v11.6l0.1-0.15c0.695-1.042 1.042-1.563 1.501-1.94 0.406-0.334 0.874-0.584 1.377-0.737 0.568-0.173 1.194-0.173 2.447-0.173h1.375c1.12 0 1.68 0 2.108-0.218 0.376-0.192 0.682-0.498 0.874-0.874 0.218-0.428 0.218-0.988 0.218-2.108v-8.6z"></path>
<path stroke-linejoin="round" stroke-linecap="round" stroke-miterlimit="4" stroke-width="2.25" d="M2 6.2c0-1.12 0-1.68 0.218-2.108 0.192-0.376 0.498-0.682 0.874-0.874 0.428-0.218 0.988-0.218 2.108-0.218h0.4c2.24 0 3.36 0 4.216 0.436 0.753 0.383 1.365 0.995 1.748 1.748 0.436 0.856 0.436 1.976 0.436 4.216v11.6l-0.1-0.15c-0.695-1.042-1.042-1.563-1.501-1.94-0.406-0.334-0.874-0.584-1.377-0.737-0.568-0.173-1.194-0.173-2.447-0.173h-1.375c-1.12 0-1.68 0-2.108-0.218-0.376-0.192-0.682-0.498-0.874-0.874-0.218-0.428-0.218-0.988-0.218-2.108v-8.6z"></path>
</symbol>
<symbol id="close" viewBox="0 0 24 24">
<path stroke-linejoin="round" stroke-linecap="round" stroke-miterlimit="4" stroke-width="1.875" d="M18 6l-12 12"></path>
<path stroke-linejoin="round" stroke-linecap="round" stroke-miterlimit="4" stroke-width="1.875" d="M6 6l12 12"></path>
</symbol>
<symbol id="heart-checked" viewBox="0 0 24 24">
<path fill="#f4c550" style="fill: var(--color1, #f4c550); stroke: var(--color1, #f4c550)" stroke="#f4c550" stroke-linejoin="round" stroke-linecap="round" stroke-miterlimit="4" stroke-width="0.9231" d="M20.84 4.61c-0.511-0.511-1.117-0.916-1.785-1.193s-1.383-0.419-2.105-0.419-1.438 0.142-2.105 0.419c-0.667 0.277-1.274 0.682-1.785 1.193l-1.060 1.060-1.060-1.060c-1.032-1.032-2.431-1.611-3.89-1.611s-2.858 0.58-3.89 1.611c-1.032 1.032-1.611 2.431-1.611 3.89s0.58 2.858 1.611 3.89l8.84 8.84 8.84-8.84c0.511-0.511 0.916-1.117 1.193-1.785s0.419-1.383 0.419-2.105-0.142-1.438-0.419-2.105c-0.277-0.667-0.682-1.274-1.193-1.785z"></path>
</symbol>
<symbol id="heart-normal" viewBox="0 0 24 24">
<path stroke-linejoin="round" stroke-linecap="round" stroke-miterlimit="4" stroke-width="1.8462" d="M20.84 4.61c-0.511-0.511-1.117-0.916-1.785-1.193s-1.383-0.419-2.105-0.419-1.438 0.142-2.105 0.419c-0.667 0.277-1.274 0.682-1.785 1.193l-1.060 1.060-1.060-1.060c-1.032-1.032-2.431-1.611-3.89-1.611s-2.858 0.58-3.89 1.611c-1.032 1.032-1.611 2.431-1.611 3.89s0.58 2.858 1.611 3.89l8.84 8.84 8.84-8.84c0.511-0.511 0.916-1.117 1.193-1.785s0.419-1.383 0.419-2.105-0.142-1.438-0.419-2.105c-0.277-0.667-0.682-1.274-1.193-1.785z"></path>
</symbol>
<symbol id="log-in" viewBox="0 0 24 24">
<path fill="none" stroke="#f4c550" style="stroke: var(--color1, #f4c550)" stroke-linejoin="round" stroke-linecap="round" stroke-miterlimit="4" stroke-width="2.4" d="M15 3h1.2c1.68 0 2.52 0 3.162 0.327 0.564 0.288 1.023 0.747 1.311 1.311 0.327 0.642 0.327 1.482 0.327 3.162v8.4c0 1.68 0 2.52-0.327 3.162-0.288 0.564-0.747 1.023-1.311 1.311-0.642 0.327-1.482 0.327-3.162 0.327h-1.2"></path>
<path fill="none" stroke="#f4c550" style="stroke: var(--color1, #f4c550)" stroke-linejoin="round" stroke-linecap="round" stroke-miterlimit="4" stroke-width="2.4" d="M10 7l5 5M15 12l-5 5M15 12h-12"></path>
</symbol>
<symbol id="rating" viewBox="0 0 24 24">
<path fill="#ffc531" style="fill: var(--color2, #ffc531); stroke: var(--color2, #ffc531)" stroke="#ffc531" stroke-linejoin="miter" stroke-linecap="butt" stroke-miterlimit="4" stroke-width="1.8" d="M9.3 7.046l2.7-5.117 2.7 5.117c0.239 0.453 0.674 0.769 1.178 0.856l5.701 0.986-4.032 4.149c-0.357 0.367-0.523 0.878-0.45 1.385l0.823 5.726-5.192-2.553c-0.459-0.226-0.997-0.226-1.456 0l-5.192 2.553 0.824-5.726c0.073-0.506-0.093-1.018-0.45-1.385l-4.032-4.149 5.701-0.986c0.504-0.087 0.939-0.403 1.178-0.856z"></path>
</symbol>
<symbol id="eye-off" viewBox="0 0 24 24">
<path d="M10.128 5.214c0.651-0.152 1.296-0.221 1.86-0.214 1.758 0 3.309 0.559 4.658 1.393 1.119 0.692 2.089 1.567 2.894 2.448 0.644 0.705 1.175 1.405 1.585 2.001 0.327 0.475 0.57 0.874 0.733 1.155-0.546 0.953-1.16 1.821-1.778 2.542-0.359 0.419-0.311 1.051 0.108 1.41s1.051 0.311 1.41-0.108c0.818-0.954 1.611-2.112 2.283-3.37 0.148-0.279 0.163-0.618 0.013-0.919 0 0-0.396-0.789-1.12-1.843-0.451-0.656-1.038-1.432-1.757-2.218-0.894-0.979-2.004-1.987-3.319-2.8-1.595-0.985-3.506-1.691-5.686-1.691-0.734-0.009-1.54 0.079-2.34 0.266-0.538 0.126-0.872 0.664-0.746 1.202s0.664 0.872 1.202 0.746zM10.027 11.442l2.531 2.531c-0.182 0.061-0.372 0.094-0.563 0.101-0.513 0.018-1.030-0.159-1.434-0.536s-0.617-0.88-0.635-1.393c-0.008-0.238 0.025-0.476 0.101-0.704zM5.983 7.397l2.553 2.553c-0.434 0.691-0.636 1.484-0.608 2.266 0.036 1.022 0.463 2.033 1.271 2.785s1.846 1.107 2.868 1.071c0.692-0.024 1.379-0.228 1.984-0.608l2.322 2.322c-1.378 0.799-2.895 1.196-4.384 1.214-1.734 0-3.285-0.559-4.634-1.393-1.119-0.692-2.089-1.567-2.894-2.448-0.644-0.705-1.175-1.405-1.585-2.001-0.326-0.475-0.57-0.873-0.732-1.154 1.050-1.822 2.376-3.379 3.841-4.607zM0.293 1.707l4.271 4.271c-1.731 1.479-3.269 3.358-4.445 5.549-0.148 0.279-0.164 0.619-0.013 0.92 0 0 0.396 0.789 1.12 1.843 0.451 0.656 1.038 1.432 1.757 2.218 0.894 0.979 2.004 1.987 3.319 2.8 1.595 0.986 3.506 1.692 5.71 1.692 1.993-0.024 4.019-0.601 5.815-1.759l4.466 4.466c0.391 0.391 1.024 0.391 1.414 0s0.391-1.024 0-1.414l-8.876-8.876c-0.002-0.002-0.005-0.005-0.007-0.007l-4.209-4.21c-0.008-0.007-0.016-0.016-0.024-0.024l-8.884-8.883c-0.391-0.391-1.024-0.391-1.414 0s-0.391 1.024 0 1.414z"></path>
</symbol>
<symbol id="eye" viewBox="0 0 24 24">
<path d="M0.106 11.553c-0.136 0.274-0.146 0.603 0 0.894 0 0 0.396 0.789 1.12 1.843 0.451 0.656 1.038 1.432 1.757 2.218 0.894 0.979 2.004 1.987 3.319 2.8 1.595 0.986 3.506 1.692 5.698 1.692s4.103-0.706 5.698-1.692c1.315-0.813 2.425-1.821 3.319-2.8 0.718-0.786 1.306-1.562 1.757-2.218 0.724-1.054 1.12-1.843 1.12-1.843 0.136-0.274 0.146-0.603 0-0.894 0 0-0.396-0.789-1.12-1.843-0.451-0.656-1.038-1.432-1.757-2.218-0.894-0.979-2.004-1.987-3.319-2.8-1.595-0.986-3.506-1.692-5.698-1.692s-4.103 0.706-5.698 1.692c-1.315 0.813-2.425 1.821-3.319 2.8-0.719 0.786-1.306 1.561-1.757 2.218-0.724 1.054-1.12 1.843-1.12 1.843zM2.14 12c0.163-0.281 0.407-0.681 0.734-1.158 0.41-0.596 0.94-1.296 1.585-2.001 0.805-0.881 1.775-1.756 2.894-2.448 1.35-0.834 2.901-1.393 4.647-1.393s3.297 0.559 4.646 1.393c1.119 0.692 2.089 1.567 2.894 2.448 0.644 0.705 1.175 1.405 1.585 2.001 0.328 0.477 0.572 0.876 0.734 1.158-0.163 0.281-0.407 0.681-0.734 1.158-0.41 0.596-0.94 1.296-1.585 2.001-0.805 0.881-1.775 1.756-2.894 2.448-1.349 0.834-2.9 1.393-4.646 1.393s-3.297-0.559-4.646-1.393c-1.119-0.692-2.089-1.567-2.894-2.448-0.644-0.705-1.175-1.405-1.585-2.001-0.328-0.477-0.572-0.877-0.735-1.158zM16 12c0-1.104-0.449-2.106-1.172-2.828s-1.724-1.172-2.828-1.172-2.106 0.449-2.828 1.172-1.172 1.724-1.172 2.828 0.449 2.106 1.172 2.828 1.724 1.172 2.828 1.172 2.106-0.449 2.828-1.172 1.172-1.724 1.172-2.828zM14 12c0 0.553-0.223 1.051-0.586 1.414s-0.861 0.586-1.414 0.586-1.051-0.223-1.414-0.586-0.586-0.861-0.586-1.414 0.223-1.051 0.586-1.414 0.861-0.586 1.414-0.586 1.051 0.223 1.414 0.586 0.586 0.861 0.586 1.414z"></path>
</symbol>
</defs>
</svg>
